<?xml version="1.0" encoding="UTF-8" standalone="no"?>
<!DOCTYPE svg PUBLIC "-//W3C//DTD SVG 1.1//EN"
 "http://www.w3.org/Graphics/SVG/1.1/DTD/svg11.dtd">
<!-- Generated by graphviz version 2.36.0 (20140111.2315)
 -->
<!-- Title: D Pages: 1 -->
<svg width="1759pt" height="870pt"
 viewBox="0.00 0.00 1759.00 870.00" xmlns="http://www.w3.org/2000/svg" xmlns:xlink="http://www.w3.org/1999/xlink">
<g id="graph0" class="graph" transform="scale(1 1) rotate(0) translate(4 866)">
<title>D</title>
<polygon fill="white" stroke="none" points="-4,4 -4,-866 1755,-866 1755,4 -4,4"/>
<g id="clust1" class="cluster"><title>cluster_legend</title>
<polygon fill="none" stroke="black" points="60,-691 60,-854 209,-854 209,-691 60,-691"/>
<text text-anchor="middle" x="134.5" y="-838.8" font-family="sans" font-size="14.00">legend</text>
</g>
<g id="clust2" class="cluster"><title>cluster_perception</title>
<polygon fill="none" stroke="black" points="270,-360 270,-854 1341,-854 1341,-360 270,-360"/>
<text text-anchor="middle" x="805.5" y="-838.8" font-family="sans" font-size="14.00">perception</text>
</g>
<g id="clust3" class="cluster"><title>cluster_map</title>
<polygon fill="none" stroke="black" points="1349,-617 1349,-854 1743,-854 1743,-617 1349,-617"/>
<text text-anchor="middle" x="1546" y="-838.8" font-family="sans" font-size="14.00">map</text>
</g>
<g id="clust4" class="cluster"><title>cluster_lane_following</title>
<polygon fill="none" stroke="black" points="8,-8 8,-435 262,-435 262,-8 8,-8"/>
<text text-anchor="middle" x="135" y="-419.8" font-family="sans" font-size="14.00">lane following</text>
</g>
<!-- topic_name -->
<g id="node1" class="node"><title>topic_name</title>
<ellipse fill="none" stroke="black" cx="134" cy="-805" rx="51.4931" ry="18"/>
<text text-anchor="middle" x="134" y="-801.3" font-family="Times,serif" font-size="14.00">topic_name</text>
</g>
<!-- node_name -->
<g id="node2" class="node"><title>node_name</title>
<polygon fill="none" stroke="black" points="174,-735 94,-735 94,-699 174,-699 174,-735"/>
<text text-anchor="middle" x="134" y="-713.3" font-family="Times,serif" font-size="14.00">node_name</text>
</g>
<!-- topic_name&#45;&gt;node_name -->
<g id="edge2" class="edge"><title>topic_name&#45;&gt;node_name</title>
<path fill="none" stroke="black" d="M103.961,-790.249C95.6561,-784.872 87.6531,-777.837 83,-769 77.6217,-758.786 82.7305,-749.315 91.4709,-741.376"/>
<polygon fill="black" stroke="black" points="93.7946,-744.002 99.5164,-735.085 89.4828,-738.487 93.7946,-744.002"/>
<text text-anchor="middle" x="109" y="-757.3" font-family="Times,serif" font-size="14.00">subscribe</text>
</g>
<!-- node_name&#45;&gt;topic_name -->
<g id="edge1" class="edge"><title>node_name&#45;&gt;topic_name</title>
<path fill="none" stroke="black" d="M136.928,-735.038C137.775,-740.731 138.582,-747.122 139,-753 139.504,-760.093 139.504,-761.907 139,-769 138.817,-771.572 138.56,-774.241 138.257,-776.908"/>
<polygon fill="black" stroke="black" points="134.769,-776.59 136.928,-786.962 141.709,-777.507 134.769,-776.59"/>
<text text-anchor="middle" x="160" y="-757.3" font-family="Times,serif" font-size="14.00">publish</text>
</g>
<!-- img -->
<g id="node3" class="node"><title>img</title>
<ellipse fill="none" stroke="black" cx="724" cy="-717" rx="27" ry="18"/>
<text text-anchor="middle" x="724" y="-713.3" font-family="Times,serif" font-size="14.00">img</text>
</g>
<!-- line_detector -->
<g id="node7" class="node"><title>line_detector</title>
<polygon fill="none" stroke="black" points="365.25,-661 278.75,-661 278.75,-625 365.25,-625 365.25,-661"/>
<text text-anchor="middle" x="322" y="-639.3" font-family="Times,serif" font-size="14.00">line_detector</text>
</g>
<!-- img&#45;&gt;line_detector -->
<g id="edge4" class="edge"><title>img&#45;&gt;line_detector</title>
<path fill="none" stroke="black" d="M697.373,-713.289C639.985,-707.135 500.345,-690.485 375.026,-661.045"/>
<polygon fill="black" stroke="black" points="375.802,-657.632 365.263,-658.718 374.179,-664.441 375.802,-657.632"/>
</g>
<!-- april_tag_detector -->
<g id="node8" class="node"><title>april_tag_detector</title>
<polygon fill="none" stroke="black" points="498.25,-661 383.75,-661 383.75,-625 498.25,-625 498.25,-661"/>
<text text-anchor="middle" x="441" y="-639.3" font-family="Times,serif" font-size="14.00">april_tag_detector</text>
</g>
<!-- img&#45;&gt;april_tag_detector -->
<g id="edge11" class="edge"><title>img&#45;&gt;april_tag_detector</title>
<path fill="none" stroke="black" d="M699.259,-709.762C660.696,-700.033 583.657,-680.567 508.673,-661.423"/>
<polygon fill="black" stroke="black" points="509.145,-657.931 498.59,-658.848 507.412,-664.714 509.145,-657.931"/>
</g>
<!-- sign_detector -->
<g id="node9" class="node"><title>sign_detector</title>
<polygon fill="none" stroke="black" points="605.25,-661 516.75,-661 516.75,-625 605.25,-625 605.25,-661"/>
<text text-anchor="middle" x="561" y="-639.3" font-family="Times,serif" font-size="14.00">sign_detector</text>
</g>
<!-- img&#45;&gt;sign_detector -->
<g id="edge10" class="edge"><title>img&#45;&gt;sign_detector</title>
<path fill="none" stroke="black" d="M702.017,-706.29C678.313,-695.819 639.839,-678.825 609.062,-665.23"/>
<polygon fill="black" stroke="black" points="610.344,-661.97 599.782,-661.131 607.515,-668.373 610.344,-661.97"/>
</g>
<!-- traffic_light_detector -->
<g id="node10" class="node"><title>traffic_light_detector</title>
<polygon fill="none" stroke="black" points="754.25,-661 623.75,-661 623.75,-625 754.25,-625 754.25,-661"/>
<text text-anchor="middle" x="689" y="-639.3" font-family="Times,serif" font-size="14.00">traffic_light_detector</text>
</g>
<!-- img&#45;&gt;traffic_light_detector -->
<g id="edge9" class="edge"><title>img&#45;&gt;traffic_light_detector</title>
<path fill="none" stroke="black" d="M716.058,-699.662C711.809,-690.921 706.476,-679.95 701.669,-670.063"/>
<polygon fill="black" stroke="black" points="704.796,-668.488 697.276,-661.025 698.5,-671.548 704.796,-668.488"/>
</g>
<!-- vehicle_detector -->
<g id="node11" class="node"><title>vehicle_detector</title>
<polygon fill="none" stroke="black" points="878.5,-661 773.5,-661 773.5,-625 878.5,-625 878.5,-661"/>
<text text-anchor="middle" x="826" y="-639.3" font-family="Times,serif" font-size="14.00">vehicle_detector</text>
</g>
<!-- img&#45;&gt;vehicle_detector -->
<g id="edge8" class="edge"><title>img&#45;&gt;vehicle_detector</title>
<path fill="none" stroke="black" d="M742.236,-703.128C756.387,-693.139 776.374,-679.03 793.275,-667.1"/>
<polygon fill="black" stroke="black" points="795.634,-669.719 801.785,-661.093 791.597,-664 795.634,-669.719"/>
</g>
<!-- duckie_detector -->
<g id="node12" class="node"><title>duckie_detector</title>
<polygon fill="none" stroke="black" points="1000.25,-661 897.75,-661 897.75,-625 1000.25,-625 1000.25,-661"/>
<text text-anchor="middle" x="949" y="-639.3" font-family="Times,serif" font-size="14.00">duckie_detector</text>
</g>
<!-- img&#45;&gt;duckie_detector -->
<g id="edge7" class="edge"><title>img&#45;&gt;duckie_detector</title>
<path fill="none" stroke="black" d="M748.079,-708.295C781.206,-697.694 841.967,-678.251 888.028,-663.511"/>
<polygon fill="black" stroke="black" points="889.161,-666.823 897.618,-660.442 887.027,-660.156 889.161,-666.823"/>
</g>
<!-- relative_intersection_localizer -->
<g id="node13" class="node"><title>relative_intersection_localizer</title>
<polygon fill="none" stroke="black" points="1199,-661 1019,-661 1019,-625 1199,-625 1199,-661"/>
<text text-anchor="middle" x="1109" y="-639.3" font-family="Times,serif" font-size="14.00">relative_intersection_localizer</text>
</g>
<!-- img&#45;&gt;relative_intersection_localizer -->
<g id="edge6" class="edge"><title>img&#45;&gt;relative_intersection_localizer</title>
<path fill="none" stroke="black" d="M749.859,-711.164C801.97,-701.419 922.048,-678.962 1009.04,-662.694"/>
<polygon fill="black" stroke="black" points="1009.76,-666.12 1018.95,-660.841 1008.47,-659.239 1009.76,-666.12"/>
</g>
<!-- stop_line_detector -->
<g id="node15" class="node"><title>stop_line_detector</title>
<polygon fill="none" stroke="black" points="1332.5,-661 1217.5,-661 1217.5,-625 1332.5,-625 1332.5,-661"/>
<text text-anchor="middle" x="1275" y="-639.3" font-family="Times,serif" font-size="14.00">stop_line_detector</text>
</g>
<!-- img&#45;&gt;stop_line_detector -->
<g id="edge5" class="edge"><title>img&#45;&gt;stop_line_detector</title>
<path fill="none" stroke="black" d="M750.946,-714.224C823.281,-709.184 1027.81,-693.151 1207.47,-660.945"/>
<polygon fill="black" stroke="black" points="1208.15,-664.38 1217.37,-659.151 1206.9,-657.492 1208.15,-664.38"/>
</g>
<!-- lines -->
<g id="node4" class="node"><title>lines</title>
<ellipse fill="none" stroke="black" cx="331" cy="-569" rx="26.949" ry="18"/>
<text text-anchor="middle" x="331" y="-565.3" font-family="Times,serif" font-size="14.00">lines</text>
</g>
<!-- lane_filter -->
<g id="node6" class="node"><title>lane_filter</title>
<polygon fill="none" stroke="black" points="369,-513 297,-513 297,-477 369,-477 369,-513"/>
<text text-anchor="middle" x="333" y="-491.3" font-family="Times,serif" font-size="14.00">lane_filter</text>
</g>
<!-- lines&#45;&gt;lane_filter -->
<g id="edge13" class="edge"><title>lines&#45;&gt;lane_filter</title>
<path fill="none" stroke="black" d="M331.474,-550.937C331.7,-542.807 331.976,-532.876 332.23,-523.705"/>
<polygon fill="black" stroke="black" points="335.736,-523.534 332.516,-513.441 328.739,-523.34 335.736,-523.534"/>
</g>
<!-- lane_reading -->
<g id="node5" class="node"><title>lane_reading</title>
<ellipse fill="none" stroke="black" cx="334" cy="-386" rx="55.3436" ry="18"/>
<text text-anchor="middle" x="334" y="-382.3" font-family="Times,serif" font-size="14.00">lane_reading</text>
</g>
<!-- lane_controller -->
<g id="node23" class="node"><title>lane_controller</title>
<polygon fill="none" stroke="black" points="233.5,-316 136.5,-316 136.5,-280 233.5,-280 233.5,-316"/>
<text text-anchor="middle" x="185" y="-294.3" font-family="Times,serif" font-size="14.00">lane_controller</text>
</g>
<!-- lane_reading&#45;&gt;lane_controller -->
<g id="edge23" class="edge"><title>lane_reading&#45;&gt;lane_controller</title>
<path fill="none" stroke="black" d="M308.046,-370.02C284.599,-356.487 249.79,-336.395 223.172,-321.032"/>
<polygon fill="black" stroke="black" points="224.898,-317.987 214.488,-316.02 221.399,-324.05 224.898,-317.987"/>
<text text-anchor="middle" x="323" y="-338.3" font-family="Times,serif" font-size="14.00">LaneReading.msg</text>
</g>
<!-- lane_filter&#45;&gt;lane_reading -->
<g id="edge14" class="edge"><title>lane_filter&#45;&gt;lane_reading</title>
<path fill="none" stroke="black" d="M333.161,-476.809C333.318,-459.961 333.561,-434.018 333.744,-414.339"/>
<polygon fill="black" stroke="black" points="337.246,-414.181 333.84,-404.149 330.246,-414.116 337.246,-414.181"/>
<text text-anchor="middle" x="384" y="-447.3" font-family="Times,serif" font-size="14.00">LaneReading.msg</text>
</g>
<!-- line_detector&#45;&gt;lines -->
<g id="edge12" class="edge"><title>line_detector&#45;&gt;lines</title>
<path fill="none" stroke="black" d="M324.133,-624.937C325.16,-616.719 326.417,-606.66 327.574,-597.406"/>
<polygon fill="black" stroke="black" points="331.052,-597.798 328.82,-587.441 324.107,-596.929 331.052,-597.798"/>
</g>
<!-- global_localizer -->
<g id="node14" class="node"><title>global_localizer</title>
<polygon fill="none" stroke="black" points="1129,-823 1025,-823 1025,-787 1129,-787 1129,-823"/>
<text text-anchor="middle" x="1077" y="-801.3" font-family="Times,serif" font-size="14.00">global_localizer</text>
</g>
<!-- camera_node -->
<g id="node16" class="node"><title>camera_node</title>
<polygon fill="none" stroke="black" points="768.25,-823 679.75,-823 679.75,-787 768.25,-787 768.25,-823"/>
<text text-anchor="middle" x="724" y="-801.3" font-family="Times,serif" font-size="14.00">camera_node</text>
</g>
<!-- camera_node&#45;&gt;img -->
<g id="edge3" class="edge"><title>camera_node&#45;&gt;img</title>
<path fill="none" stroke="black" d="M724,-786.597C724,-774.746 724,-758.817 724,-745.292"/>
<polygon fill="black" stroke="black" points="727.5,-745.084 724,-735.084 720.5,-745.084 727.5,-745.084"/>
</g>
<!-- map_representation -->
<g id="node17" class="node"><title>map_representation</title>
<ellipse fill="none" stroke="black" cx="1515" cy="-717" rx="80.389" ry="18"/>
<text text-anchor="middle" x="1515" y="-713.3" font-family="Times,serif" font-size="14.00">map_representation</text>
</g>
<!-- map_visualizer -->
<g id="node18" class="node"><title>map_visualizer</title>
<polygon fill="none" stroke="black" points="1457,-661 1357,-661 1357,-625 1457,-625 1457,-661"/>
<text text-anchor="middle" x="1407" y="-639.3" font-family="Times,serif" font-size="14.00">map_visualizer</text>
</g>
<!-- map_representation&#45;&gt;map_visualizer -->
<g id="edge16" class="edge"><title>map_representation&#45;&gt;map_visualizer</title>
<path fill="none" stroke="black" d="M1490.49,-699.662C1475.9,-689.93 1457.15,-677.433 1441.12,-666.746"/>
<polygon fill="black" stroke="black" points="1442.8,-663.659 1432.54,-661.025 1438.92,-669.484 1442.8,-663.659"/>
</g>
<!-- map_editor -->
<g id="node19" class="node"><title>map_editor</title>
<polygon fill="none" stroke="black" points="1554.25,-661 1475.75,-661 1475.75,-625 1554.25,-625 1554.25,-661"/>
<text text-anchor="middle" x="1515" y="-639.3" font-family="Times,serif" font-size="14.00">map_editor</text>
</g>
<!-- map_representation&#45;&gt;map_editor -->
<g id="edge18" class="edge"><title>map_representation&#45;&gt;map_editor</title>
<path fill="none" stroke="black" d="M1509.16,-698.937C1508.3,-690.807 1508.05,-680.876 1508.41,-671.705"/>
<polygon fill="black" stroke="black" points="1511.92,-671.658 1509.12,-661.441 1504.94,-671.176 1511.92,-671.658"/>
</g>
<!-- localization -->
<g id="node20" class="node"><title>localization</title>
<polygon fill="none" stroke="black" points="1653,-661 1573,-661 1573,-625 1653,-625 1653,-661"/>
<text text-anchor="middle" x="1613" y="-639.3" font-family="Times,serif" font-size="14.00">localization</text>
</g>
<!-- map_representation&#45;&gt;localization -->
<g id="edge20" class="edge"><title>map_representation&#45;&gt;localization</title>
<path fill="none" stroke="black" d="M1537.24,-699.662C1550.36,-690.02 1567.18,-677.664 1581.64,-667.043"/>
<polygon fill="black" stroke="black" points="1583.84,-669.766 1589.83,-661.025 1579.7,-664.125 1583.84,-669.766"/>
</g>
<!-- planning -->
<g id="node21" class="node"><title>planning</title>
<polygon fill="none" stroke="black" points="1735,-661 1671,-661 1671,-625 1735,-625 1735,-661"/>
<text text-anchor="middle" x="1703" y="-639.3" font-family="Times,serif" font-size="14.00">planning</text>
</g>
<!-- map_representation&#45;&gt;planning -->
<g id="edge19" class="edge"><title>map_representation&#45;&gt;planning</title>
<path fill="none" stroke="black" d="M1555.39,-701.321C1582.92,-691.218 1620.4,-677.273 1661.44,-661.162"/>
<polygon fill="black" stroke="black" points="1662.79,-664.392 1670.81,-657.47 1660.23,-657.88 1662.79,-664.392"/>
</g>
<!-- map_editor&#45;&gt;map_representation -->
<g id="edge17" class="edge"><title>map_editor&#45;&gt;map_representation</title>
<path fill="none" stroke="black" d="M1520.88,-661.441C1521.72,-669.625 1521.95,-679.572 1521.57,-688.719"/>
<polygon fill="black" stroke="black" points="1518.06,-688.713 1520.84,-698.937 1525.04,-689.212 1518.06,-688.713"/>
</g>
<!-- slam -->
<g id="node22" class="node"><title>slam</title>
<polygon fill="none" stroke="black" points="1542,-823 1488,-823 1488,-787 1542,-787 1542,-823"/>
<text text-anchor="middle" x="1515" y="-801.3" font-family="Times,serif" font-size="14.00">slam</text>
</g>
<!-- slam&#45;&gt;map_representation -->
<g id="edge15" class="edge"><title>slam&#45;&gt;map_representation</title>
<path fill="none" stroke="black" d="M1515,-786.597C1515,-774.746 1515,-758.817 1515,-745.292"/>
<polygon fill="black" stroke="black" points="1518.5,-745.084 1515,-735.084 1511.5,-745.084 1518.5,-745.084"/>
</g>
<!-- car_supervisor -->
<g id="node25" class="node"><title>car_supervisor</title>
<polygon fill="none" stroke="black" points="152,-228 56,-228 56,-192 152,-192 152,-228"/>
<text text-anchor="middle" x="104" y="-206.3" font-family="Times,serif" font-size="14.00">car_supervisor</text>
</g>
<!-- lane_controller&#45;&gt;car_supervisor -->
<g id="edge24" class="edge"><title>lane_controller&#45;&gt;car_supervisor</title>
<path fill="none" stroke="black" d="M172.41,-279.844C164.636,-269.644 154.223,-256.659 144,-246 140.419,-242.267 136.488,-238.49 132.532,-234.868"/>
<polygon fill="black" stroke="black" points="134.777,-232.179 124.98,-228.145 130.122,-237.408 134.777,-232.179"/>
<text text-anchor="middle" x="202" y="-250.3" font-family="Times,serif" font-size="14.00">CarControl.msg</text>
</g>
<!-- car_emulator -->
<g id="node24" class="node"><title>car_emulator</title>
<polygon fill="none" stroke="black" points="104.25,-140 15.75,-140 15.75,-104 104.25,-104 104.25,-140"/>
<text text-anchor="middle" x="60" y="-118.3" font-family="Times,serif" font-size="14.00">car_emulator</text>
</g>
<!-- wheel_driver -->
<g id="node28" class="node"><title>wheel_driver</title>
<polygon fill="none" stroke="black" points="103.5,-52 16.5,-52 16.5,-16 103.5,-16 103.5,-52"/>
<text text-anchor="middle" x="60" y="-30.3" font-family="Times,serif" font-size="14.00">wheel_driver</text>
</g>
<!-- car_emulator&#45;&gt;wheel_driver -->
<g id="edge27" class="edge"><title>car_emulator&#45;&gt;wheel_driver</title>
<path fill="none" stroke="black" d="M60,-103.597C60,-91.7459 60,-75.8169 60,-62.2917"/>
<polygon fill="black" stroke="black" points="63.5001,-62.084 60,-52.084 56.5001,-62.084 63.5001,-62.084"/>
<text text-anchor="middle" x="105.5" y="-74.3" font-family="Times,serif" font-size="14.00">WheelCmd.msg</text>
</g>
<!-- car_supervisor&#45;&gt;car_emulator -->
<g id="edge26" class="edge"><title>car_supervisor&#45;&gt;car_emulator</title>
<path fill="none" stroke="black" d="M55.7967,-193.316C47.5201,-188.438 39.9903,-182.127 35,-174 30.1498,-166.101 32.2321,-157.127 36.8098,-148.932"/>
<polygon fill="black" stroke="black" points="39.8527,-150.68 42.5466,-140.433 34.0508,-146.763 39.8527,-150.68"/>
<text text-anchor="middle" x="79" y="-162.3" font-family="Times,serif" font-size="14.00">CarControl.msg</text>
</g>
<!-- beeper -->
<g id="node29" class="node"><title>beeper</title>
<polygon fill="none" stroke="black" points="177,-140 123,-140 123,-104 177,-104 177,-140"/>
<text text-anchor="middle" x="150" y="-118.3" font-family="Times,serif" font-size="14.00">beeper</text>
</g>
<!-- car_supervisor&#45;&gt;beeper -->
<g id="edge25" class="edge"><title>car_supervisor&#45;&gt;beeper</title>
<path fill="none" stroke="black" d="M113.313,-191.929C116.408,-186.234 119.864,-179.85 123,-174 127.355,-165.877 132.067,-157.005 136.317,-148.973"/>
<polygon fill="black" stroke="black" points="139.468,-150.501 141.044,-140.024 133.279,-147.231 139.468,-150.501"/>
<text text-anchor="middle" x="186.5" y="-162.3" font-family="Times,serif" font-size="14.00">std_msgs/Bool.msg</text>
</g>
<!-- joy_node -->
<g id="node26" class="node"><title>joy_node</title>
<polygon fill="none" stroke="black" points="90.25,-404 23.75,-404 23.75,-368 90.25,-368 90.25,-404"/>
<text text-anchor="middle" x="57" y="-382.3" font-family="Times,serif" font-size="14.00">joy_node</text>
</g>
<!-- joy_mapper -->
<g id="node27" class="node"><title>joy_mapper</title>
<polygon fill="none" stroke="black" points="98,-316 16,-316 16,-280 98,-280 98,-316"/>
<text text-anchor="middle" x="57" y="-294.3" font-family="Times,serif" font-size="14.00">joy_mapper</text>
</g>
<!-- joy_node&#45;&gt;joy_mapper -->
<g id="edge21" class="edge"><title>joy_node&#45;&gt;joy_mapper</title>
<path fill="none" stroke="black" d="M57,-367.597C57,-355.746 57,-339.817 57,-326.292"/>
<polygon fill="black" stroke="black" points="60.5001,-326.084 57,-316.084 53.5001,-326.084 60.5001,-326.084"/>
<text text-anchor="middle" x="117" y="-338.3" font-family="Times,serif" font-size="14.00">sensor_msgs/Joy.msg</text>
</g>
<!-- joy_mapper&#45;&gt;car_supervisor -->
<g id="edge22" class="edge"><title>joy_mapper&#45;&gt;car_supervisor</title>
<path fill="none" stroke="black" d="M52.7197,-279.556C51.1216,-269.254 50.7822,-256.262 56,-246 58.0538,-241.961 60.8165,-238.277 63.9844,-234.946"/>
<polygon fill="black" stroke="black" points="66.366,-237.511 71.4484,-228.215 61.6781,-232.312 66.366,-237.511"/>
<text text-anchor="middle" x="100" y="-250.3" font-family="Times,serif" font-size="14.00">CarControl.msg</text>
</g>
</g>
</svg>
