<?xml version="1.0" encoding="UTF-8" standalone="no"?>
<!DOCTYPE svg PUBLIC "-//W3C//DTD SVG 1.1//EN"
 "http://www.w3.org/Graphics/SVG/1.1/DTD/svg11.dtd">
<!-- Generated by graphviz version 2.36.0 (20140111.2315)
 -->
<!-- Title: D Pages: 1 -->
<svg width="1971pt" height="972pt"
 viewBox="0.00 0.00 1971.00 972.00" xmlns="http://www.w3.org/2000/svg" xmlns:xlink="http://www.w3.org/1999/xlink">
<g id="graph0" class="graph" transform="scale(1 1) rotate(0) translate(4 968)">
<title>D</title>
<polygon fill="white" stroke="none" points="-4,4 -4,-968 1967,-968 1967,4 -4,4"/>
<g id="clust1" class="cluster"><title>cluster_legend</title>
<polygon fill="none" stroke="black" points="60,-793 60,-956 209,-956 209,-793 60,-793"/>
<text text-anchor="middle" x="134.5" y="-940.8" font-family="sans" font-size="14.00">legend</text>
</g>
<g id="clust2" class="cluster"><title>cluster_perception</title>
<polygon fill="none" stroke="black" points="270,-448 270,-956 1553,-956 1553,-448 270,-448"/>
<text text-anchor="middle" x="911.5" y="-940.8" font-family="sans" font-size="14.00">perception</text>
</g>
<g id="clust3" class="cluster"><title>cluster_map</title>
<polygon fill="none" stroke="black" points="1561,-719 1561,-956 1955,-956 1955,-719 1561,-719"/>
<text text-anchor="middle" x="1758" y="-940.8" font-family="sans" font-size="14.00">map</text>
</g>
<g id="clust4" class="cluster"><title>cluster_lane_following</title>
<polygon fill="none" stroke="black" points="8,-8 8,-523 262,-523 262,-8 8,-8"/>
<text text-anchor="middle" x="135" y="-507.8" font-family="sans" font-size="14.00">lane following</text>
</g>
<!-- topic_name -->
<g id="node1" class="node"><title>topic_name</title>
<ellipse fill="none" stroke="black" cx="134" cy="-907" rx="51.4931" ry="18"/>
<text text-anchor="middle" x="134" y="-903.3" font-family="Times,serif" font-size="14.00">topic_name</text>
</g>
<!-- node_name -->
<g id="node2" class="node"><title>node_name</title>
<polygon fill="none" stroke="black" points="174,-837 94,-837 94,-801 174,-801 174,-837"/>
<text text-anchor="middle" x="134" y="-815.3" font-family="Times,serif" font-size="14.00">node_name</text>
</g>
<!-- topic_name&#45;&gt;node_name -->
<g id="edge2" class="edge"><title>topic_name&#45;&gt;node_name</title>
<path fill="none" stroke="black" d="M103.961,-892.249C95.6561,-886.872 87.6531,-879.837 83,-871 77.6217,-860.786 82.7305,-851.315 91.4709,-843.376"/>
<polygon fill="black" stroke="black" points="93.7946,-846.002 99.5164,-837.085 89.4828,-840.487 93.7946,-846.002"/>
<text text-anchor="middle" x="109" y="-859.3" font-family="Times,serif" font-size="14.00">subscribe</text>
</g>
<!-- node_name&#45;&gt;topic_name -->
<g id="edge1" class="edge"><title>node_name&#45;&gt;topic_name</title>
<path fill="none" stroke="black" d="M136.928,-837.038C137.775,-842.731 138.582,-849.122 139,-855 139.504,-862.093 139.504,-863.907 139,-871 138.817,-873.572 138.56,-876.241 138.257,-878.908"/>
<polygon fill="black" stroke="black" points="134.769,-878.59 136.928,-888.962 141.709,-879.507 134.769,-878.59"/>
<text text-anchor="middle" x="160" y="-859.3" font-family="Times,serif" font-size="14.00">publish</text>
</g>
<!-- img -->
<g id="node3" class="node"><title>img</title>
<ellipse fill="none" stroke="black" cx="858" cy="-819" rx="27" ry="18"/>
<text text-anchor="middle" x="858" y="-815.3" font-family="Times,serif" font-size="14.00">img</text>
</g>
<!-- line_detector -->
<g id="node8" class="node"><title>line_detector</title>
<polygon fill="none" stroke="black" points="365.25,-763 278.75,-763 278.75,-727 365.25,-727 365.25,-763"/>
<text text-anchor="middle" x="322" y="-741.3" font-family="Times,serif" font-size="14.00">line_detector</text>
</g>
<!-- img&#45;&gt;line_detector -->
<g id="edge4" class="edge"><title>img&#45;&gt;line_detector</title>
<path fill="none" stroke="black" d="M830.928,-816.849C758.284,-813.356 553.053,-800.827 375.298,-763.047"/>
<polygon fill="black" stroke="black" points="376.029,-759.624 365.516,-760.936 374.552,-766.467 376.029,-759.624"/>
</g>
<!-- april_tag_detector -->
<g id="node9" class="node"><title>april_tag_detector</title>
<polygon fill="none" stroke="black" points="498.25,-763 383.75,-763 383.75,-727 498.25,-727 498.25,-763"/>
<text text-anchor="middle" x="441" y="-741.3" font-family="Times,serif" font-size="14.00">april_tag_detector</text>
</g>
<!-- img&#45;&gt;april_tag_detector -->
<g id="edge5" class="edge"><title>img&#45;&gt;april_tag_detector</title>
<path fill="none" stroke="black" d="M831.424,-814.728C774.119,-807.484 634.535,-788.819 508.35,-763.182"/>
<polygon fill="black" stroke="black" points="509.016,-759.746 498.516,-761.164 507.609,-766.603 509.016,-759.746"/>
</g>
<!-- sign_detector -->
<g id="node10" class="node"><title>sign_detector</title>
<polygon fill="none" stroke="black" points="605.25,-763 516.75,-763 516.75,-727 605.25,-727 605.25,-763"/>
<text text-anchor="middle" x="561" y="-741.3" font-family="Times,serif" font-size="14.00">sign_detector</text>
</g>
<!-- img&#45;&gt;sign_detector -->
<g id="edge12" class="edge"><title>img&#45;&gt;sign_detector</title>
<path fill="none" stroke="black" d="M832.171,-812.963C789.095,-804.395 699.722,-785.904 615.196,-763.214"/>
<polygon fill="black" stroke="black" points="616.015,-759.81 605.448,-760.572 614.184,-766.566 616.015,-759.81"/>
</g>
<!-- traffic_light_detector -->
<g id="node11" class="node"><title>traffic_light_detector</title>
<polygon fill="none" stroke="black" points="754.25,-763 623.75,-763 623.75,-727 754.25,-727 754.25,-763"/>
<text text-anchor="middle" x="689" y="-741.3" font-family="Times,serif" font-size="14.00">traffic_light_detector</text>
</g>
<!-- img&#45;&gt;traffic_light_detector -->
<g id="edge11" class="edge"><title>img&#45;&gt;traffic_light_detector</title>
<path fill="none" stroke="black" d="M835.906,-808.587C811.313,-798.11 770.786,-780.844 738.522,-767.098"/>
<polygon fill="black" stroke="black" points="739.803,-763.84 729.231,-763.14 737.06,-770.28 739.803,-763.84"/>
</g>
<!-- vehicle_detector -->
<g id="node12" class="node"><title>vehicle_detector</title>
<polygon fill="none" stroke="black" points="878.5,-763 773.5,-763 773.5,-727 878.5,-727 878.5,-763"/>
<text text-anchor="middle" x="826" y="-741.3" font-family="Times,serif" font-size="14.00">vehicle_detector</text>
</g>
<!-- img&#45;&gt;vehicle_detector -->
<g id="edge10" class="edge"><title>img&#45;&gt;vehicle_detector</title>
<path fill="none" stroke="black" d="M850.739,-801.662C846.894,-793.011 842.078,-782.176 837.72,-772.369"/>
<polygon fill="black" stroke="black" points="840.826,-770.741 833.566,-763.025 834.43,-773.584 840.826,-770.741"/>
</g>
<!-- duckie_detector -->
<g id="node13" class="node"><title>duckie_detector</title>
<polygon fill="none" stroke="black" points="1000.25,-763 897.75,-763 897.75,-727 1000.25,-727 1000.25,-763"/>
<text text-anchor="middle" x="949" y="-741.3" font-family="Times,serif" font-size="14.00">duckie_detector</text>
</g>
<!-- img&#45;&gt;duckie_detector -->
<g id="edge9" class="edge"><title>img&#45;&gt;duckie_detector</title>
<path fill="none" stroke="black" d="M874.691,-804.794C887.159,-794.929 904.531,-781.184 919.343,-769.465"/>
<polygon fill="black" stroke="black" points="921.591,-772.15 927.261,-763.2 917.247,-766.66 921.591,-772.15"/>
</g>
<!-- relative_intersection_localizer -->
<g id="node14" class="node"><title>relative_intersection_localizer</title>
<polygon fill="none" stroke="black" points="1199,-763 1019,-763 1019,-727 1199,-727 1199,-763"/>
<text text-anchor="middle" x="1109" y="-741.3" font-family="Times,serif" font-size="14.00">relative_intersection_localizer</text>
</g>
<!-- img&#45;&gt;relative_intersection_localizer -->
<g id="edge8" class="edge"><title>img&#45;&gt;relative_intersection_localizer</title>
<path fill="none" stroke="black" d="M882.524,-810.965C918.623,-800.61 987.442,-780.869 1039.79,-765.854"/>
<polygon fill="black" stroke="black" points="1041.04,-769.136 1049.69,-763.014 1039.11,-762.407 1041.04,-769.136"/>
</g>
<!-- stop_line_detector -->
<g id="node16" class="node"><title>stop_line_detector</title>
<polygon fill="none" stroke="black" points="1332.5,-763 1217.5,-763 1217.5,-727 1332.5,-727 1332.5,-763"/>
<text text-anchor="middle" x="1275" y="-741.3" font-family="Times,serif" font-size="14.00">stop_line_detector</text>
</g>
<!-- img&#45;&gt;stop_line_detector -->
<g id="edge7" class="edge"><title>img&#45;&gt;stop_line_detector</title>
<path fill="none" stroke="black" d="M884.494,-814.69C941.622,-807.371 1080.78,-788.567 1207.46,-763.004"/>
<polygon fill="black" stroke="black" points="1208.23,-766.418 1217.33,-760.992 1206.84,-759.559 1208.23,-766.418"/>
</g>
<!-- led_detector -->
<g id="node18" class="node"><title>led_detector</title>
<polygon fill="none" stroke="black" points="1434.25,-763 1351.75,-763 1351.75,-727 1434.25,-727 1434.25,-763"/>
<text text-anchor="middle" x="1393" y="-741.3" font-family="Times,serif" font-size="14.00">led_detector</text>
</g>
<!-- img&#45;&gt;led_detector -->
<g id="edge6" class="edge"><title>img&#45;&gt;led_detector</title>
<path fill="none" stroke="black" d="M885.016,-816.843C958.844,-813.27 1169.9,-800.306 1341,-763 1341.21,-762.953 1341.43,-762.906 1341.64,-762.858"/>
<polygon fill="black" stroke="black" points="1342.63,-766.219 1351.48,-760.394 1340.93,-759.428 1342.63,-766.219"/>
</g>
<!-- plate_detector -->
<g id="node19" class="node"><title>plate_detector</title>
<polygon fill="none" stroke="black" points="1545.25,-763 1452.75,-763 1452.75,-727 1545.25,-727 1545.25,-763"/>
<text text-anchor="middle" x="1499" y="-741.3" font-family="Times,serif" font-size="14.00">plate_detector</text>
</g>
<!-- img&#45;&gt;plate_detector -->
<g id="edge13" class="edge"><title>img&#45;&gt;plate_detector</title>
<path fill="none" stroke="black" d="M885.109,-817.435C967.641,-815.298 1223.03,-805.618 1442.63,-762.806"/>
<polygon fill="black" stroke="black" points="1443.6,-766.182 1452.73,-760.808 1442.24,-759.315 1443.6,-766.182"/>
</g>
<!-- segment_list -->
<g id="node4" class="node"><title>segment_list</title>
<ellipse fill="none" stroke="black" cx="334" cy="-657" rx="55.3436" ry="18"/>
<text text-anchor="middle" x="334" y="-653.3" font-family="Times,serif" font-size="14.00">segment_list</text>
</g>
<!-- lane_filter -->
<g id="node7" class="node"><title>lane_filter</title>
<polygon fill="none" stroke="black" points="370,-601 298,-601 298,-565 370,-565 370,-601"/>
<text text-anchor="middle" x="334" y="-579.3" font-family="Times,serif" font-size="14.00">lane_filter</text>
</g>
<!-- segment_list&#45;&gt;lane_filter -->
<g id="edge16" class="edge"><title>segment_list&#45;&gt;lane_filter</title>
<path fill="none" stroke="black" d="M334,-638.937C334,-630.807 334,-620.876 334,-611.705"/>
<polygon fill="black" stroke="black" points="337.5,-611.441 334,-601.441 330.5,-611.441 337.5,-611.441"/>
</g>
<!-- image_with_lines -->
<g id="node5" class="node"><title>image_with_lines</title>
<ellipse fill="none" stroke="black" cx="481" cy="-657" rx="73.1654" ry="18"/>
<text text-anchor="middle" x="481" y="-653.3" font-family="Times,serif" font-size="14.00">image_with_lines</text>
</g>
<!-- lane_reading -->
<g id="node6" class="node"><title>lane_reading</title>
<ellipse fill="none" stroke="black" cx="334" cy="-474" rx="55.3436" ry="18"/>
<text text-anchor="middle" x="334" y="-470.3" font-family="Times,serif" font-size="14.00">lane_reading</text>
</g>
<!-- lane_controller -->
<g id="node26" class="node"><title>lane_controller</title>
<polygon fill="none" stroke="black" points="233.5,-404 136.5,-404 136.5,-368 233.5,-368 233.5,-404"/>
<text text-anchor="middle" x="185" y="-382.3" font-family="Times,serif" font-size="14.00">lane_controller</text>
</g>
<!-- lane_reading&#45;&gt;lane_controller -->
<g id="edge26" class="edge"><title>lane_reading&#45;&gt;lane_controller</title>
<path fill="none" stroke="black" d="M308.046,-458.02C284.599,-444.487 249.79,-424.395 223.172,-409.032"/>
<polygon fill="black" stroke="black" points="224.898,-405.987 214.488,-404.02 221.399,-412.05 224.898,-405.987"/>
<text text-anchor="middle" x="323" y="-426.3" font-family="Times,serif" font-size="14.00">LaneReading.msg</text>
</g>
<!-- lane_filter&#45;&gt;lane_reading -->
<g id="edge17" class="edge"><title>lane_filter&#45;&gt;lane_reading</title>
<path fill="none" stroke="black" d="M334,-564.809C334,-547.961 334,-522.018 334,-502.339"/>
<polygon fill="black" stroke="black" points="337.5,-502.149 334,-492.149 330.5,-502.149 337.5,-502.149"/>
<text text-anchor="middle" x="384" y="-535.3" font-family="Times,serif" font-size="14.00">LaneReading.msg</text>
</g>
<!-- line_detector&#45;&gt;segment_list -->
<g id="edge14" class="edge"><title>line_detector&#45;&gt;segment_list</title>
<path fill="none" stroke="black" d="M324.428,-726.597C326.082,-714.746 328.305,-698.817 330.192,-685.292"/>
<polygon fill="black" stroke="black" points="333.701,-685.472 331.616,-675.084 326.768,-684.504 333.701,-685.472"/>
<text text-anchor="middle" x="378.5" y="-697.3" font-family="Times,serif" font-size="14.00">SegmentList.msg</text>
</g>
<!-- line_detector&#45;&gt;image_with_lines -->
<g id="edge15" class="edge"><title>line_detector&#45;&gt;image_with_lines</title>
<path fill="none" stroke="black" d="M353.89,-726.983C360.411,-723.986 367.324,-721.145 374,-719 398.487,-711.132 408.24,-720.979 431,-709 443.001,-702.683 453.874,-692.455 462.393,-682.81"/>
<polygon fill="black" stroke="black" points="465.24,-684.862 468.968,-674.944 459.869,-680.372 465.24,-684.862"/>
<text text-anchor="middle" x="520" y="-697.3" font-family="Times,serif" font-size="14.00">sensor_msgs/Image.msg</text>
</g>
<!-- global_localizer -->
<g id="node15" class="node"><title>global_localizer</title>
<polygon fill="none" stroke="black" points="1301,-925 1197,-925 1197,-889 1301,-889 1301,-925"/>
<text text-anchor="middle" x="1249" y="-903.3" font-family="Times,serif" font-size="14.00">global_localizer</text>
</g>
<!-- camera_node -->
<g id="node17" class="node"><title>camera_node</title>
<polygon fill="none" stroke="black" points="902.25,-925 813.75,-925 813.75,-889 902.25,-889 902.25,-925"/>
<text text-anchor="middle" x="858" y="-903.3" font-family="Times,serif" font-size="14.00">camera_node</text>
</g>
<!-- camera_node&#45;&gt;img -->
<g id="edge3" class="edge"><title>camera_node&#45;&gt;img</title>
<path fill="none" stroke="black" d="M858,-888.597C858,-876.746 858,-860.817 858,-847.292"/>
<polygon fill="black" stroke="black" points="861.5,-847.084 858,-837.084 854.5,-847.084 861.5,-847.084"/>
</g>
<!-- map_representation -->
<g id="node20" class="node"><title>map_representation</title>
<ellipse fill="none" stroke="black" cx="1727" cy="-819" rx="80.389" ry="18"/>
<text text-anchor="middle" x="1727" y="-815.3" font-family="Times,serif" font-size="14.00">map_representation</text>
</g>
<!-- map_visualizer -->
<g id="node21" class="node"><title>map_visualizer</title>
<polygon fill="none" stroke="black" points="1669,-763 1569,-763 1569,-727 1669,-727 1669,-763"/>
<text text-anchor="middle" x="1619" y="-741.3" font-family="Times,serif" font-size="14.00">map_visualizer</text>
</g>
<!-- map_representation&#45;&gt;map_visualizer -->
<g id="edge19" class="edge"><title>map_representation&#45;&gt;map_visualizer</title>
<path fill="none" stroke="black" d="M1702.49,-801.662C1687.9,-791.93 1669.15,-779.433 1653.12,-768.746"/>
<polygon fill="black" stroke="black" points="1654.8,-765.659 1644.54,-763.025 1650.92,-771.484 1654.8,-765.659"/>
</g>
<!-- map_editor -->
<g id="node22" class="node"><title>map_editor</title>
<polygon fill="none" stroke="black" points="1766.25,-763 1687.75,-763 1687.75,-727 1766.25,-727 1766.25,-763"/>
<text text-anchor="middle" x="1727" y="-741.3" font-family="Times,serif" font-size="14.00">map_editor</text>
</g>
<!-- map_representation&#45;&gt;map_editor -->
<g id="edge21" class="edge"><title>map_representation&#45;&gt;map_editor</title>
<path fill="none" stroke="black" d="M1721.16,-800.937C1720.3,-792.807 1720.05,-782.876 1720.41,-773.705"/>
<polygon fill="black" stroke="black" points="1723.92,-773.658 1721.12,-763.441 1716.94,-773.176 1723.92,-773.658"/>
</g>
<!-- localization -->
<g id="node23" class="node"><title>localization</title>
<polygon fill="none" stroke="black" points="1865,-763 1785,-763 1785,-727 1865,-727 1865,-763"/>
<text text-anchor="middle" x="1825" y="-741.3" font-family="Times,serif" font-size="14.00">localization</text>
</g>
<!-- map_representation&#45;&gt;localization -->
<g id="edge23" class="edge"><title>map_representation&#45;&gt;localization</title>
<path fill="none" stroke="black" d="M1749.24,-801.662C1762.36,-792.02 1779.18,-779.664 1793.64,-769.043"/>
<polygon fill="black" stroke="black" points="1795.84,-771.766 1801.83,-763.025 1791.7,-766.125 1795.84,-771.766"/>
</g>
<!-- planning -->
<g id="node24" class="node"><title>planning</title>
<polygon fill="none" stroke="black" points="1947,-763 1883,-763 1883,-727 1947,-727 1947,-763"/>
<text text-anchor="middle" x="1915" y="-741.3" font-family="Times,serif" font-size="14.00">planning</text>
</g>
<!-- map_representation&#45;&gt;planning -->
<g id="edge22" class="edge"><title>map_representation&#45;&gt;planning</title>
<path fill="none" stroke="black" d="M1767.39,-803.321C1794.92,-793.218 1832.4,-779.273 1873.44,-763.162"/>
<polygon fill="black" stroke="black" points="1874.79,-766.392 1882.81,-759.47 1872.23,-759.88 1874.79,-766.392"/>
</g>
<!-- map_editor&#45;&gt;map_representation -->
<g id="edge20" class="edge"><title>map_editor&#45;&gt;map_representation</title>
<path fill="none" stroke="black" d="M1732.88,-763.441C1733.72,-771.625 1733.95,-781.572 1733.57,-790.719"/>
<polygon fill="black" stroke="black" points="1730.06,-790.713 1732.84,-800.937 1737.04,-791.212 1730.06,-790.713"/>
</g>
<!-- slam -->
<g id="node25" class="node"><title>slam</title>
<polygon fill="none" stroke="black" points="1754,-925 1700,-925 1700,-889 1754,-889 1754,-925"/>
<text text-anchor="middle" x="1727" y="-903.3" font-family="Times,serif" font-size="14.00">slam</text>
</g>
<!-- slam&#45;&gt;map_representation -->
<g id="edge18" class="edge"><title>slam&#45;&gt;map_representation</title>
<path fill="none" stroke="black" d="M1727,-888.597C1727,-876.746 1727,-860.817 1727,-847.292"/>
<polygon fill="black" stroke="black" points="1730.5,-847.084 1727,-837.084 1723.5,-847.084 1730.5,-847.084"/>
</g>
<!-- car_supervisor -->
<g id="node28" class="node"><title>car_supervisor</title>
<polygon fill="none" stroke="black" points="156,-316 60,-316 60,-280 156,-280 156,-316"/>
<text text-anchor="middle" x="108" y="-294.3" font-family="Times,serif" font-size="14.00">car_supervisor</text>
</g>
<!-- lane_controller&#45;&gt;car_supervisor -->
<g id="edge27" class="edge"><title>lane_controller&#45;&gt;car_supervisor</title>
<path fill="none" stroke="black" d="M171.84,-367.566C164.037,-357.505 153.787,-344.755 144,-334 140.726,-330.402 137.168,-326.709 133.606,-323.134"/>
<polygon fill="black" stroke="black" points="135.963,-320.543 126.378,-316.028 131.056,-325.534 135.963,-320.543"/>
<text text-anchor="middle" x="201" y="-338.3" font-family="Times,serif" font-size="14.00">CarControl.msg</text>
</g>
<!-- car_emulator -->
<g id="node27" class="node"><title>car_emulator</title>
<polygon fill="none" stroke="black" points="104.25,-140 15.75,-140 15.75,-104 104.25,-104 104.25,-140"/>
<text text-anchor="middle" x="60" y="-118.3" font-family="Times,serif" font-size="14.00">car_emulator</text>
</g>
<!-- wheel_driver -->
<g id="node31" class="node"><title>wheel_driver</title>
<polygon fill="none" stroke="black" points="103.5,-52 16.5,-52 16.5,-16 103.5,-16 103.5,-52"/>
<text text-anchor="middle" x="60" y="-30.3" font-family="Times,serif" font-size="14.00">wheel_driver</text>
</g>
<!-- car_emulator&#45;&gt;wheel_driver -->
<g id="edge31" class="edge"><title>car_emulator&#45;&gt;wheel_driver</title>
<path fill="none" stroke="black" d="M60,-103.597C60,-91.7459 60,-75.8169 60,-62.2917"/>
<polygon fill="black" stroke="black" points="63.5001,-62.084 60,-52.084 56.5001,-62.084 63.5001,-62.084"/>
<text text-anchor="middle" x="105.5" y="-74.3" font-family="Times,serif" font-size="14.00">WheelCmd.msg</text>
</g>
<!-- safety_supervisor -->
<g id="node33" class="node"><title>safety_supervisor</title>
<polygon fill="none" stroke="black" points="163.5,-228 52.5,-228 52.5,-192 163.5,-192 163.5,-228"/>
<text text-anchor="middle" x="108" y="-206.3" font-family="Times,serif" font-size="14.00">safety_supervisor</text>
</g>
<!-- car_supervisor&#45;&gt;safety_supervisor -->
<g id="edge28" class="edge"><title>car_supervisor&#45;&gt;safety_supervisor</title>
<path fill="none" stroke="black" d="M108,-279.597C108,-267.746 108,-251.817 108,-238.292"/>
<polygon fill="black" stroke="black" points="111.5,-238.084 108,-228.084 104.5,-238.084 111.5,-238.084"/>
<text text-anchor="middle" x="152" y="-250.3" font-family="Times,serif" font-size="14.00">CarControl.msg</text>
</g>
<!-- joy_node -->
<g id="node29" class="node"><title>joy_node</title>
<polygon fill="none" stroke="black" points="90.25,-492 23.75,-492 23.75,-456 90.25,-456 90.25,-492"/>
<text text-anchor="middle" x="57" y="-470.3" font-family="Times,serif" font-size="14.00">joy_node</text>
</g>
<!-- joy_mapper -->
<g id="node30" class="node"><title>joy_mapper</title>
<polygon fill="none" stroke="black" points="98,-404 16,-404 16,-368 98,-368 98,-404"/>
<text text-anchor="middle" x="57" y="-382.3" font-family="Times,serif" font-size="14.00">joy_mapper</text>
</g>
<!-- joy_node&#45;&gt;joy_mapper -->
<g id="edge24" class="edge"><title>joy_node&#45;&gt;joy_mapper</title>
<path fill="none" stroke="black" d="M57,-455.597C57,-443.746 57,-427.817 57,-414.292"/>
<polygon fill="black" stroke="black" points="60.5001,-414.084 57,-404.084 53.5001,-414.084 60.5001,-414.084"/>
<text text-anchor="middle" x="117" y="-426.3" font-family="Times,serif" font-size="14.00">sensor_msgs/Joy.msg</text>
</g>
<!-- joy_mapper&#45;&gt;car_supervisor -->
<g id="edge25" class="edge"><title>joy_mapper&#45;&gt;car_supervisor</title>
<path fill="none" stroke="black" d="M52.6571,-367.958C50.9444,-357.556 50.5069,-344.319 56,-334 58.1877,-329.89 61.0964,-326.177 64.424,-322.842"/>
<polygon fill="black" stroke="black" points="66.9365,-325.299 72.2608,-316.139 62.3864,-319.979 66.9365,-325.299"/>
<text text-anchor="middle" x="100" y="-338.3" font-family="Times,serif" font-size="14.00">CarControl.msg</text>
</g>
<!-- beeper -->
<g id="node32" class="node"><title>beeper</title>
<polygon fill="none" stroke="black" points="177,-140 123,-140 123,-104 177,-104 177,-140"/>
<text text-anchor="middle" x="150" y="-118.3" font-family="Times,serif" font-size="14.00">beeper</text>
</g>
<!-- safety_supervisor&#45;&gt;car_emulator -->
<g id="edge29" class="edge"><title>safety_supervisor&#45;&gt;car_emulator</title>
<path fill="none" stroke="black" d="M53.0404,-191.99C45.4851,-187.336 38.714,-181.444 34,-174 28.9489,-166.023 31.2271,-156.944 36.0905,-148.678"/>
<polygon fill="black" stroke="black" points="38.9967,-150.63 41.8957,-140.439 33.2746,-146.598 38.9967,-150.63"/>
<text text-anchor="middle" x="78" y="-162.3" font-family="Times,serif" font-size="14.00">CarControl.msg</text>
</g>
<!-- safety_supervisor&#45;&gt;beeper -->
<g id="edge30" class="edge"><title>safety_supervisor&#45;&gt;beeper</title>
<path fill="none" stroke="black" d="M116.499,-191.597C122.459,-179.394 130.53,-162.867 137.257,-149.093"/>
<polygon fill="black" stroke="black" points="140.413,-150.606 141.657,-140.084 134.123,-147.534 140.413,-150.606"/>
<text text-anchor="middle" x="187.5" y="-162.3" font-family="Times,serif" font-size="14.00">std_msgs/Bool.msg</text>
</g>
</g>
</svg>
